#!OML:ASF X:\für Bonn\!DataBase\2005_08_11_Bastian_Final\c3d\Bastian.ASF
:FULLY-SPECIFIED
:DEGREES
92
root 22.082 16.2683 -3.52085 1067.59 -74.1279 19.4565
lowerback 65.3877 -5.3479 16.2383
upperback 18.7093 0.236072 2.54343
thorax 0.906318 -0.293167 -3.81544
lowerneck -13.1403 -5.61098 -1.07931
upperneck -13.7087 -8.03074 0.586857
head -2.13076 -4.33357 0.215753
rclavicle 3.18055e-014 -3.73715e-014
rhumerus 48.9606 -8.30865 -51.1803
rradius 13.6195
rwrist -4.79618
rhand -24.8967 -2.60046
rfingers 7.12502
rthumb 1.61136 -32.5741
lclavicle 3.18055e-014 -3.73715e-014
lhumerus -8.50121 -29.4866 -274.902
lradius 42.5023
lwrist -335.539
lhand -11.3798 -8.79321
lfingers 7.12502
lthumb 14.6546 20.6689
rfemur -51.863 -13.5305 20.5096
rtibia 54.3436
rfoot -2.62732 3.4181
rtoes 6.1879
lfemur -46.0681 -1.44066 -25.2965
ltibia 37.2547
lfoot -1.67877 -4.66275
ltoes -16.4272
93
root 22.0402 16.2425 -3.51835 1067.78 -74.0327 19.9303
lowerback 65.7801 -5.41462 16.1797
upperback 18.6042 0.219139 2.49016
thorax 0.793375 -0.301404 -3.82292
lowerneck -13.2296 -5.53726 -1.14717
upperneck -13.9383 -7.94072 0.533333
head -2.19424 -4.29113 0.214915
rclavicle 0 5.62561e-014
rhumerus 49.7662 -8.90502 -51.2607
rradius 13.1976
rwrist -4.35482
rhand -25.0671 -2.44449
rfingers 7.12502
rthumb 1.44679 -32.4193
lclavicle 0 5.62561e-014
lhumerus -8.66057 -29.4903 -274.884
lradius 42.4977
lwrist -335.367
lhand -11.2102 -8.83226
lfingers 7.12502
lthumb 14.818 20.6179
rfemur -52.833 -13.6183 20.5396
rtibia 54.9611
rfoot -2.87563 3.42761
rtoes 6.48615
lfemur -46.9126 -1.60371 -25.3802
ltibia 37.5494
lfoot -1.20917 -4.50217
ltoes -15.6327
94
root 21.998 16.2172 -3.51463 1067.61 -73.9172 20.7168
lowerback 66.2421 -5.50523 16.0983
upperback 18.4867 0.174702 2.38737
thorax 0.665549 -0.316791 -3.86343
lowerneck -13.2984 -5.48027 -1.20294
upperneck -14.1828 -7.86922 0.538843
head -2.26396 -4.25903 0.231161
rclavicle 5.40694e-014 3.26007e-014
rhumerus 50.5999 -9.66514 -51.6124
rradius 12.7476
rwrist -3.60566
rhand -25.2654 -2.39205
rfingers 7.12502
rthumb 1.25527 -32.3681
lclavicle 5.40694e-014 3.26007e-014
lhumerus -8.78985 -29.5965 -274.927
lradius 42.5228
lwrist -335.145
lhand -11.0999 -8.97881
lfingers 7.12502
lthumb 14.9243 20.4635
rfemur -53.7383 -13.7072 20.4446
rtibia 55.5911
rfoot -3.17435 3.43661
rtoes 6.81026
lfemur -47.6768 -1.77738 -25.553
ltibia 37.85
lfoot -0.694549 -4.34594
ltoes -14.6238
95
root 21.9546 16.1917 -3.51043 1067.5 -73.7914 21.4601
lowerback 66.7157 -5.59092 15.9903
upperback 18.3458 0.129851 2.3154
thorax 0.509857 -0.340562 -3.85837
lowerneck -13.3379 -5.42044 -1.26879
upperneck -14.4413 -7.80221 0.465657
head -2.3467 -4.22791 0.225787
rclavicle -7.31528e-014 -4.05521e-014
rhumerus 51.4108 -10.2191 -51.7467
rradius 12.3026
rwrist -3.15969
rhand -25.5033 -2.33117
rfingers 7.12502
rthumb 1.02546 -32.3085
lclavicle -7.31528e-014 -4.05521e-014
lhumerus -8.95901 -29.637 -274.906
lradius 42.5874
lwrist -334.948
lhand -11.0053 -9.10039
lfingers 7.12502
lthumb 15.0154 20.3352
rfemur -54.6446 -13.8125 20.3587
rtibia 56.2245
rfoot -3.44621 3.43201
rtoes 7.06343
lfemur -48.4305 -1.95164 -25.7253
ltibia 38.1608
lfoot -0.192632 -4.21191
ltoes -13.4528
96
root 21.9113 16.1671 -3.50576 1067.27 -73.6479 22.2988
lowerback 67.1853 -5.69078 15.8887
upperback 18.2127 0.0696721 2.20776
thorax 0.364362 -0.363282 -3.89085
lowerneck -13.4156 -5.35398 -1.30032
upperneck -14.6875 -7.72416 0.435895
head -2.41895 -4.19313 0.22703
rclavicle -6.67916e-014 -3.29983e-014
rhumerus 52.2186 -11.0141 -52.3197
rradius 11.9137
rwrist -2.27037
rhand -25.7747 -2.27502
rfingers 7.12502
rthumb 0.763353 -32.2534
lclavicle -6.67916e-014 -3.29983e-014
lhumerus -9.09036 -29.6811 -274.941
lradius 42.6489
lwrist -334.714
lhand -10.9384 -9.30596
lfingers 7.12502
lthumb 15.0799 20.1248
rfemur -55.5291 -13.928 20.2366
rtibia 56.8623
rfoot -3.76633 3.43719
rtoes 7.1213
lfemur -49.149 -2.1232 -25.9455
ltibia 38.4799
lfoot 0.332913 -4.11386
ltoes -11.9084
97
root 21.8676 16.1419 -3.50149 1067 -73.483 23.1952
lowerback 67.6412 -5.79203 15.7542
upperback 18.0691 -0.00998325 2.09516
thorax 0.202097 -0.395986 -3.91023
lowerneck -13.481 -5.28886 -1.35113
upperneck -14.9223 -7.64353 0.421897
head -2.48821 -4.15577 0.236405
rclavicle -6.04305e-014 -6.79844e-014
rhumerus 53.0728 -11.7808 -53.001
rradius 11.4926
rwrist -1.38886
rhand -26.0741 -2.15857
rfingers 7.12502
rthumb 0.474145 -32.1378
lclavicle -6.04305e-014 -6.79844e-014
lhumerus -9.24372 -29.7342 -274.991
lradius 42.7543
lwrist -334.43
lhand -10.861 -9.53594
lfingers 7.12502
lthumb 15.1544 19.8892
rfemur -56.4227 -14.0412 20.0727
rtibia 57.4949
rfoot -4.0669 3.43199
rtoes 7.47001
lfemur -49.8663 -2.30339 -26.1989
ltibia 38.8151
lfoot 0.798688 -4.04095
ltoes -10.3742
98
root 21.823 16.1168 -3.49581 1066.86 -73.3349 23.9599
lowerback 68.0633 -5.87509 15.6466
upperback 17.9421 -0.0621766 2.02102
thorax 0.0641911 -0.418126 -3.90913
lowerneck -13.6054 -5.2495 -1.42988
upperneck -15.1144 -7.59598 0.387281
head -2.53363 -4.1341 0.240131
rclavicle -2.22639e-014 -7.95139e-016
rhumerus 53.9421 -12.5863 -53.7166
rradius 11.0788
rwrist -0.484807
rhand -26.4725 -2.03542
rfingers 7.12502
rthumb 0.0893715 -32.0151
lclavicle -2.22639e-014 -7.95139e-016
lhumerus -9.34717 -29.7388 -274.985
lradius 42.8286
lwrist -334.203
lhand -10.8308 -9.77627
lfingers 7.12502
lthumb 15.1835 19.6467
rfemur -57.3103 -14.1477 19.9569
rtibia 58.1223
rfoot -4.37152 3.39869
rtoes 7.54218
lfemur -50.5802 -2.46333 -26.4325
ltibia 39.1589
lfoot 1.2275 -4.03251
ltoes -9.1602
99
root 21.78 16.092 -3.49057 1066.74 -73.1579 24.7113
lowerback 68.4746 -5.99444 15.5425
upperback 17.8091 -0.152301 1.90357
thorax -0.0822623 -0.450222 -3.94449
lowerneck -13.696 -5.17551 -1.45423
upperneck -15.3446 -7.50737 0.357288
head -2.59965 -4.09383 0.239444
rclavicle 4.77083e-014 -7.55382e-015
rhumerus 54.8012 -13.3272 -54.4597
rradius 10.6965
rwrist 0.294107
rhand -26.8267 -1.87319
rfingers 7.12502
rthumb -0.25275 -31.8528
lclavicle 4.77083e-014 -7.55382e-015
lhumerus -9.47123 -29.7277 -275.055
lradius 42.9577
lwrist -333.98
lhand -10.8679 -10.0037
lfingers 7.12502
lthumb 15.1478 19.4219
rfemur -58.1847 -14.2646 19.8182
rtibia 58.7388
rfoot -4.67969 3.38714
rtoes 7.65351
lfemur -51.2975 -2.6098 -26.6938
ltibia 39.5166
lfoot 1.60891 -4.05722
ltoes -8.09074
100
root 21.7365 16.0692 -3.4855 1066.56 -72.9666 25.5195
lowerback 68.8661 -6.10262 15.4422
upperback 17.6654 -0.225238 1.79912
thorax -0.23955 -0.47495 -3.97417
lowerneck -13.7308 -5.13472 -1.51048
upperneck -15.5957 -7.45745 0.366525
head -2.67913 -4.07176 0.257841
rclavicle -6.36111e-015 2.94201e-014
rhumerus 55.6111 -14.1059 -55.2383
rradius 10.3343
rwrist 1.15419
rhand -27.2549 -1.7633
rfingers 7.12502
rthumb -0.666247 -31.742
lclavicle -6.36111e-015 2.94201e-014
lhumerus -9.61692 -29.7947 -275.085
lradius 43.0978
lwrist -333.75
lhand -11.0292 -10.2528
lfingers 7.12502
lthumb 14.9924 19.1845
rfemur -59.0622 -14.3995 19.6678
rtibia 59.3362
rfoot -4.99831 3.3613
rtoes 7.8269
lfemur -52.0212 -2.74592 -27.0017
ltibia 39.8855
lfoot 1.94165 -4.12121
ltoes -7.45014
101
root 21.6931 16.0465 -3.47968 1066.39 -72.7809 26.3147
lowerback 69.258 -6.18932 15.304
upperback 17.5208 -0.298592 1.71418
thorax -0.401296 -0.505509 -3.96798
lowerneck -13.8205 -5.08359 -1.58294
upperneck -15.7783 -7.39145 0.343352
head -2.72733 -4.03961 0.265367
rclavicle 6.99722e-014 2.38542e-015
rhumerus 56.462 -14.9551 -56.2807
rradius 10.0665
rwrist 2.31027
rhand -27.567 -1.71086
rfingers 7.12502
rthumb -0.967725 -31.6884
lclavicle 6.99722e-014 2.38542e-015
lhumerus -9.75903 -29.7082 -275.084
lradius 43.2501
lwrist -333.535
lhand -11.1166 -10.4406
lfingers 7.12502
lthumb 14.9081 19.0029
rfemur -59.9002 -14.5442 19.5219
rtibia 59.9165
rfoot -5.30817 3.33007
rtoes 7.82037
lfemur -52.7263 -2.84725 -27.3279
ltibia 40.2548
lfoot 2.20026 -4.23219
ltoes -7.01498
102
root 21.6498 16.0259 -3.47389 1066.37 -72.5753 26.9435
lowerback 69.6274 -6.33127 15.2421
upperback 17.3572 -0.381749 1.60075
thorax -0.576759 -0.531623 -4.01907
lowerneck -13.7531 -5.04231 -1.67841
upperneck -16.0455 -7.33141 0.392941
head -2.82638 -4.00871 0.306742
rclavicle 2.22639e-014 1.27222e-014
rhumerus 57.2448 -15.7153 -57.3367
rradius 9.80104
rwrist 3.45113
rhand -27.9694 -1.66264
rfingers 7.12502
rthumb -1.35634 -31.6381
lclavicle 2.22639e-014 1.27222e-014
lhumerus -9.92236 -29.728 -275.12
lradius 43.4272
lwrist -333.272
lhand -11.2509 -10.6015
lfingers 7.12502
lthumb 14.7788 18.8516
rfemur -60.7105 -14.6844 19.3983
rtibia 60.4694
rfoot -5.60775 3.28285
rtoes 7.8576
lfemur -53.4276 -2.95566 -27.634
ltibia 40.6224
lfoot 2.45343 -4.36201
ltoes -7.04122
103
root 21.6076 16.0056 -3.4683 1066.33 -72.3614 27.5913
lowerback 69.9963 -6.46343 15.1755
upperback 17.1704 -0.451036 1.47694
thorax -0.778287 -0.550762 -4.08549
lowerneck -13.5792 -4.98604 -1.64683
upperneck -16.3555 -7.27567 0.36463
head -2.9661 -3.9841 0.307317
rclavicle 1.59028e-014 -8.74653e-015
rhumerus 57.9175 -16.4747 -58.4138
rradius 9.62836
rwrist 4.68878
rhand -28.3362 -1.77031
rfingers 7.12502
rthumb -1.7106 -31.7432
lclavicle 1.59028e-014 -8.74653e-015
lhumerus -10.1365 -29.7728 -275.146
lradius 43.6129
lwrist -333.04
lhand -11.4267 -10.8314
lfingers 7.12502
lthumb 14.6094 18.634
rfemur -61.5097 -14.8052 19.2486
rtibia 61.0067
rfoot -5.92762 3.1877
rtoes 7.77239
lfemur -54.1091 -3.02115 -27.9902
ltibia 40.9845
lfoot 2.67759 -4.55978
ltoes -7.11323
